<svg width="149" height="111" viewBox="0 0 149 111" fill="none" xmlns="http://www.w3.org/2000/svg">
<rect y="0.908203" width="149" height="110" fill="#FF9619"/>
<path d="M12.5 74.9082V67.9032H11.42V67.0932H12.5V66.8832C12.5 65.9232 12.705 65.1732 13.115 64.6332C13.535 64.0832 14.095 63.8082 14.795 63.8082C15.095 63.8082 15.39 63.8532 15.68 63.9432C15.98 64.0332 16.235 64.1532 16.445 64.3032L16.13 65.0382C15.83 64.8082 15.45 64.6932 14.99 64.6932C14.52 64.6932 14.155 64.8782 13.895 65.2482C13.645 65.6182 13.52 66.1532 13.52 66.8532V67.0932H15.68V67.9032H13.52V74.9082H12.5ZM20.6762 71.6832V67.0932H21.6962V71.5032C21.6962 73.2732 22.3012 74.1582 23.5112 74.1582C24.1112 74.1582 24.6712 73.9632 25.1912 73.5732C25.7212 73.1832 26.1012 72.6632 26.3312 72.0132V67.0932H27.3512V73.6782C27.3512 73.9482 27.4712 74.0882 27.7112 74.0982V74.9082C27.5912 74.9282 27.4962 74.9382 27.4262 74.9382C27.3662 74.9382 27.3012 74.9382 27.2312 74.9382C27.0212 74.9182 26.8412 74.8382 26.6912 74.6982C26.5512 74.5582 26.4812 74.3882 26.4812 74.1882L26.4512 73.1382C26.1112 73.7482 25.6462 74.2232 25.0562 74.5632C24.4762 74.8932 23.8462 75.0582 23.1662 75.0582C21.5062 75.0582 20.6762 73.9332 20.6762 71.6832ZM37.2324 67.9932C36.5524 68.0132 35.9524 68.2032 35.4324 68.5632C34.9224 68.9232 34.5624 69.4182 34.3524 70.0482V74.9082H33.3324V67.0932H34.2924V68.9682C34.5624 68.4182 34.9174 67.9732 35.3574 67.6332C35.8074 67.2932 36.2824 67.1032 36.7824 67.0632C36.8824 67.0532 36.9674 67.0482 37.0374 67.0482C37.1074 67.0482 37.1724 67.0532 37.2324 67.0632V67.9932ZM48.8362 74.9082H47.8162V70.5432C47.8162 69.6232 47.6762 68.9532 47.3962 68.5332C47.1262 68.1032 46.7062 67.8882 46.1362 67.8882C45.7362 67.8882 45.3412 67.9882 44.9512 68.1882C44.5612 68.3782 44.2162 68.6432 43.9162 68.9832C43.6262 69.3132 43.4162 69.6932 43.2862 70.1232V74.9082H42.2662V67.0932H43.1962V68.8632C43.5062 68.2932 43.9612 67.8332 44.5612 67.4832C45.1612 67.1332 45.8112 66.9582 46.5112 66.9582C47.0912 66.9582 47.5512 67.0982 47.8912 67.3782C48.2312 67.6482 48.4712 68.0382 48.6112 68.5482C48.7612 69.0482 48.8362 69.6432 48.8362 70.3332V74.9082ZM54.6863 65.4582V63.9582H55.7063V65.4582H54.6863ZM54.6863 74.9082V67.0932H55.7063V74.9082H54.6863ZM65.3779 74.5332C65.2579 74.5832 65.0379 74.6732 64.7179 74.8032C64.3979 74.9332 64.0279 74.9982 63.6079 74.9982C63.1679 74.9982 62.7829 74.8732 62.4529 74.6232C62.1229 74.3732 61.9579 73.9982 61.9579 73.4982V67.9032H60.8779V67.0932H61.9579V64.4532H62.9779V67.0932H64.7779V67.9032H62.9779V73.2132C62.9979 73.5032 63.0979 73.7182 63.2779 73.8582C63.4679 73.9882 63.6829 74.0532 63.9229 74.0532C64.2029 74.0532 64.4529 74.0082 64.6729 73.9182C64.9029 73.8182 65.0479 73.7482 65.1079 73.7082L65.3779 74.5332ZM70.2523 71.6832V67.0932H71.2723V71.5032C71.2723 73.2732 71.8773 74.1582 73.0873 74.1582C73.6873 74.1582 74.2473 73.9632 74.7673 73.5732C75.2973 73.1832 75.6773 72.6632 75.9073 72.0132V67.0932H76.9273V73.6782C76.9273 73.9482 77.0473 74.0882 77.2873 74.0982V74.9082C77.1673 74.9282 77.0723 74.9382 77.0023 74.9382C76.9423 74.9382 76.8773 74.9382 76.8073 74.9382C76.5973 74.9182 76.4173 74.8382 76.2673 74.6982C76.1273 74.5582 76.0573 74.3882 76.0573 74.1882L76.0273 73.1382C75.6873 73.7482 75.2223 74.2232 74.6323 74.5632C74.0523 74.8932 73.4223 75.0582 72.7423 75.0582C71.0823 75.0582 70.2523 73.9332 70.2523 71.6832ZM86.8086 67.9932C86.1286 68.0132 85.5286 68.2032 85.0086 68.5632C84.4986 68.9232 84.1386 69.4182 83.9286 70.0482V74.9082H82.9086V67.0932H83.8686V68.9682C84.1386 68.4182 84.4936 67.9732 84.9336 67.6332C85.3836 67.2932 85.8586 67.1032 86.3586 67.0632C86.4586 67.0532 86.5436 67.0482 86.6136 67.0482C86.6836 67.0482 86.7486 67.0532 86.8086 67.0632V67.9932ZM94.983 75.0582C94.233 75.0582 93.563 74.8732 92.973 74.5032C92.383 74.1332 91.918 73.6382 91.578 73.0182C91.238 72.3982 91.068 71.7182 91.068 70.9782C91.068 70.2482 91.233 69.5782 91.563 68.9682C91.903 68.3582 92.368 67.8732 92.958 67.5132C93.548 67.1432 94.218 66.9582 94.968 66.9582C95.738 66.9582 96.413 67.1432 96.993 67.5132C97.573 67.8832 98.023 68.3732 98.343 68.9832C98.673 69.5832 98.838 70.2432 98.838 70.9632C98.838 71.1232 98.833 71.2582 98.823 71.3682H92.133C92.183 71.9282 92.343 72.4282 92.613 72.8682C92.883 73.2982 93.228 73.6432 93.648 73.9032C94.068 74.1532 94.528 74.2782 95.028 74.2782C95.538 74.2782 96.018 74.1482 96.468 73.8882C96.918 73.6282 97.238 73.2882 97.428 72.8682L98.313 73.1082C98.153 73.4882 97.903 73.8282 97.563 74.1282C97.233 74.4182 96.848 74.6482 96.408 74.8182C95.968 74.9782 95.493 75.0582 94.983 75.0582ZM92.103 70.6332H97.878C97.838 70.0732 97.683 69.5782 97.413 69.1482C97.143 68.7082 96.798 68.3682 96.378 68.1282C95.958 67.8782 95.493 67.7532 94.983 67.7532C94.473 67.7532 94.008 67.8782 93.588 68.1282C93.168 68.3682 92.823 68.7082 92.553 69.1482C92.293 69.5782 92.143 70.0732 92.103 70.6332Z" fill="white"/>
</svg>
